HIERARCHY
ROOT root
{
	OFFSET	0	13.1	24.9
	CHANNELS 6  Xposition Yposition Zposition Xrotation Yrotation Zrotation
	JOINT spine_1
	{
		OFFSET	0	9.99999	0
		CHANNELS 3  Xrotation Yrotation Zrotation
		JOINT spine_2
		{
			OFFSET	0	112	-10
			CHANNELS 3  Xrotation Yrotation Zrotation
			JOINT spine_3
			{
				OFFSET	0	206.5	19.3
				CHANNELS 3  Xrotation Yrotation Zrotation
				JOINT spine_4
				{
					OFFSET	0	110.4	14.6
					CHANNELS 3  Xrotation Yrotation Zrotation
					JOINT neck_1
					{
						OFFSET	0	71.8	-50.3
						CHANNELS 3  Xrotation Yrotation Zrotation
						JOINT neck_2
						{
							OFFSET	0	86.2	-25.8
							CHANNELS 3  Xrotation Yrotation Zrotation
							JOINT head_ee
							{
								OFFSET	0	179.8	-8.7
								CHANNELS 3  Xrotation Yrotation Zrotation
								End Site
								{
									OFFSET	1	0	0
								}
							}
						}
					}
					JOINT left_clavicle
					{
						OFFSET	-43.2	22.4	-70.8
						CHANNELS 3  Xrotation Yrotation Zrotation
						JOINT left_shoulder
						{
							OFFSET	-93.9	-5.79999	48.7
							CHANNELS 3  Xrotation Yrotation Zrotation
							JOINT left_elbow
							{
								OFFSET	-291.4	-30.8	15.2
								CHANNELS 3  Xrotation Yrotation Zrotation
								JOINT left_lowarm_twist
								{
									OFFSET	-110.7	-3.89999	13.6
									CHANNELS 3  Xrotation Yrotation Zrotation
									JOINT left_hand
									{
										OFFSET	-110.7	-3.89999	13.6
										CHANNELS 3  Xrotation Yrotation Zrotation
										JOINT left_ee
										{
											OFFSET	-80.8	-5.10001	12.1
											CHANNELS 3  Xrotation Yrotation Zrotation
											End Site
											{
												OFFSET	1	0	0
											}
										}
									}
								}
							}
						}
					}
					JOINT right_clavicle
					{
						OFFSET	43.2	22.4	-70.8
						CHANNELS 3  Xrotation Yrotation Zrotation
						JOINT right_shoulder
						{
							OFFSET	93.9	-5.79999	48.7
							CHANNELS 3  Xrotation Yrotation Zrotation
							JOINT right_elbow
							{
								OFFSET	291.4	-30.8	15.2
								CHANNELS 3  Xrotation Yrotation Zrotation
								JOINT right_lowarm_twist
								{
									OFFSET	110.7	-3.89999	13.6
									CHANNELS 3  Xrotation Yrotation Zrotation
									JOINT right_hand
									{
										OFFSET	110.7	-3.89999	13.6
										CHANNELS 3  Xrotation Yrotation Zrotation
										JOINT right_ee
										{
											OFFSET	80.8	-5.10001	12.1
											CHANNELS 3  Xrotation Yrotation Zrotation
											End Site
											{
												OFFSET	1	0	0
											}
										}
									}
								}
							}
						}
					}
				}
			}
		}
	}
	JOINT left_hip
	{
		OFFSET	-82.8	-127.5	0.300001
		CHANNELS 3  Xrotation Yrotation Zrotation
		JOINT left_knee
		{
			OFFSET	-28.2	-396.7	2.2
			CHANNELS 3  Xrotation Yrotation Zrotation
			JOINT left_ankle
			{
				OFFSET	-11.7	-411.3	35.4
				CHANNELS 3  Xrotation Yrotation Zrotation
				JOINT left_toes
				{
					OFFSET	0	-60	-88.6
					CHANNELS 3  Xrotation Yrotation Zrotation
					JOINT left_foot_ee
					{
						OFFSET	-22.5	-16.5	-42.2
						CHANNELS 3  Xrotation Yrotation Zrotation
						End Site
						{
							OFFSET	1	0	0
						}
					}
				}
			}
		}
	}
	JOINT right_hip
	{
		OFFSET	82.8	-127.5	0.300001
		CHANNELS 3  Xrotation Yrotation Zrotation
		JOINT right_knee
		{
			OFFSET	28.2	-396.7	2.2
			CHANNELS 3  Xrotation Yrotation Zrotation
			JOINT right_ankle
			{
				OFFSET	11.7	-411.3	35.4
				CHANNELS 3  Xrotation Yrotation Zrotation
				JOINT right_toes
				{
					OFFSET	0	-60	-88.6
					CHANNELS 3  Xrotation Yrotation Zrotation
					JOINT right_foot_ee
					{
						OFFSET	22.5	-16.5	-42.2
						CHANNELS 3  Xrotation Yrotation Zrotation
						End Site
						{
							OFFSET	1	0	0
						}
					}
				}
			}
		}
	}
}
MOTION
Frames: 9
Frame Time: 0.02
2992.56 712.686 -1499.59 28.0829 70.4117 -29.8649 -0.673058 0.420337 2.1126 -0.67062 0.285086 2.13505 -0.658124 -0.194694 2.14518 -0.664516 0.14646 2.14901 -11.3754 18.9356 2.24768 -12.0178 34.4402 7.63601 -0.0 0.0 -0.0 3.60984 10.828 7.4451 -0.576591 -21.0313 56.867 1.39566 -34.6569 0.43548 -45.7928 -3.58721 4.44497 0.391444 13.9167 8.17737 -0.0 0.0 -0.0 11.453 -9.52147 -21.6818 -11.0011 32.0575 -69.6834 0.183295 5.18829 -0.00830455 -37.6276 2.70246 -3.88512 -4.11972 -8.69938 23.6934 0.0 0.0 0.0 -19.8081 11.7324 6.34169 9.09579 -0.479837 -1.311 17.2337 -3.77184 -2.42759 -17.815 0.0 0.0 -0.0 0.0 -0.0 7.9173 23.749 -2.10048 -49.7068 1.19673 -7.2992 0.0941577 -9.68282 0.0137795 -22.3465 0.0 0.0 0.0 0.0 0.0 
2981.55 710.702 -1496.2 25.9612 69.1884 -27.6578 -0.941296 0.639018 2.00859 -0.939196 0.509939 2.04516 -0.918878 0.0350461 2.10746 -0.924888 0.367367 2.0755 -11.753 19.7138 4.08176 -12.4328 34.818 9.73918 -0.0 0.0 -0.0 3.88113 10.7416 7.90918 0.883815 -21.4578 55.4091 1.51133 -36.8186 0.50305 -45.8516 -3.59386 4.44854 0.0723949 14.769 6.50179 -0.0 0.0 -0.0 11.4304 -8.38576 -21.7925 -11.3381 29.2259 -68.8778 0.163101 4.61931 -0.00657837 -34.5311 2.3892 -3.64086 -4.32756 -10.0949 24.3167 0.0 0.0 0.0 -21.0331 12.5586 7.05614 7.86553 -0.40281 -1.13828 19.3389 -4.74392 -2.70661 -19.7251 0.0 0.0 -0.0 0.0 -0.0 10.9896 23.6197 -3.26414 -43.0258 0.670404 -6.41659 -3.54762 -7.47113 -0.523308 -26.223 0.0 0.0 0.0 0.0 0.0 
2980.77 715.28 -1483.99 23.4997 68.5717 -25.0717 -1.18905 0.503038 1.83535 -1.18726 0.385252 1.86362 -1.1729 -0.0539395 1.90225 -1.17787 0.247107 1.88691 -11.3633 18.8441 1.27342 -12.0348 34.8877 6.68865 -0.0 0.0 -0.0 4.15807 13.1891 8.42874 2.49427 -22.376 54.8622 1.85912 -42.6394 0.72563 -46.0712 -3.61873 4.46181 0.421686 14.7641 8.68914 -0.0 0.0 -0.0 11.6284 -0.93002 -22.9938 -13.0053 25.8508 -67.4216 0.169203 4.79135 -0.00707889 -35.8948 2.52554 -3.75051 -5.5525 -13.8527 30.6356 0.0 0.0 0.0 -20.6723 15.6878 8.56563 9.09925 -0.480059 -1.31149 19.8461 -1.64987 -2.74367 -23.095 0.0 0.0 -0.0 0.0 -0.0 12.9242 23.9901 -3.63114 -35.3465 0.197558 -5.33592 2.65734 -15.519 0.389373 -30.8651 0.0 0.0 0.0 0.0 0.0 
2977.41 715.694 -1476.04 20.2296 67.3149 -21.4058 -1.24634 0.50244 1.68297 -1.24485 0.394346 1.71152 -1.23147 -0.0118732 1.75631 -1.23568 0.26561 1.73616 -9.77235 19.7699 0.296687 -10.2731 37.058 5.4678 -0.0 0.0 -0.0 4.95627 13.502 9.76185 4.63568 -23.0982 53.7186 2.01565 -44.9517 0.833988 -45.3088 -3.53262 4.41534 0.0624778 16.2437 7.01411 -0.0 0.0 -0.0 11.9248 3.24947 -23.9149 -14.4541 24.1879 -66.1662 0.166572 4.71719 -0.00686084 -35.299 2.46565 -3.703 -5.42013 -14.4021 29.2542 0.0 0.0 0.0 -19.2642 16.8518 8.80972 6.71702 -0.334275 -0.9756 20.7589 -1.89964 -2.85904 -23.9719 0.0 0.0 -0.0 0.0 -0.0 13.5927 22.2491 -3.10433 -31.3242 0.00892631 -4.74774 7.17234 -10.9346 1.03034 -33.3739 0.0 0.0 0.0 0.0 0.0 
2966.0 715.339 -1465.05 18.1239 65.3079 -19.3669 -1.63069 0.751079 1.64108 -1.62942 0.645145 1.68553 -1.60853 0.226485 1.79048 -1.61265 0.506374 1.73227 -9.36349 19.9851 0.201714 -9.80431 37.4686 5.28228 -0.0 0.0 -0.0 5.7978 15.9995 11.0945 7.59254 -24.7567 53.0625 2.2324 -47.8714 0.991028 -45.1873 -3.51894 4.40783 -0.162417 15.7237 5.41825 -0.0 0.0 -0.0 11.9477 7.15316 -24.1189 -15.6858 23.2554 -64.6651 0.171176 4.84696 -0.0072447 -34.5902 2.39506 -3.64568 -5.57187 -15.1477 29.8035 0.0 0.0 0.0 -20.0423 18.7894 10.7868 6.42101 -0.317143 -0.933457 22.1755 -0.314723 -3.0207 -25.479 0.0 0.0 -0.0 0.0 -0.0 15.0953 24.8206 -4.36899 -19.6771 -0.299341 -2.98996 6.76643 -19.3223 0.991021 -36.3828 0.0 0.0 0.0 0.0 0.0 
2954.73 708.57 -1453.81 17.1006 64.5642 -18.3389 -1.9102 0.658532 1.55527 -1.90902 0.558244 1.59401 -1.8917 0.155447 1.68175 -1.8954 0.419061 1.63611 -8.43912 20.2811 -1.24615 -8.72756 38.8713 3.59332 -0.0 0.0 -0.0 6.16628 16.5436 11.6675 9.10049 -25.9229 52.7774 2.43313 -50.3109 1.14277 -45.3 -3.53163 4.4148 -0.152338 15.3023 5.31263 -0.0 0.0 -0.0 12.1815 12.1903 -24.6779 -17.6117 21.8755 -63.3692 0.150001 4.24972 -0.00556552 -33.0896 2.248 -3.52149 -5.60841 -16.4491 29.0776 0.0 0.0 0.0 -20.029 17.4615 11.9611 5.79433 -0.281594 -0.843953 22.7066 1.17005 -3.07569 -25.8557 0.0 0.0 -0.0 0.0 -0.0 16.2674 25.1892 -4.46751 -12.8217 -0.312091 -1.93882 6.57275 -17.9359 0.958874 -38.3035 0.0 0.0 0.0 0.0 0.0 
2930.96 699.845 -1447.04 19.4063 63.8579 -21.3057 -2.22259 0.371547 1.62905 -2.22115 0.267147 1.64939 -2.21166 -0.149818 1.66415 -2.2155 0.114846 1.66692 -7.07444 20.0588 -0.146142 -7.10334 37.4817 4.08295 -0.0 0.0 -0.0 6.51792 18.3866 12.1254 10.6247 -27.2119 52.7847 2.60133 -52.1789 1.27395 -43.0977 -3.28646 4.27415 0.0590609 15.4969 6.70277 -0.0 0.0 -0.0 11.9241 14.1818 -24.0502 -19.1747 20.2789 -63.5619 0.167305 4.73784 -0.00692122 -33.886 2.32564 -3.58787 -6.22099 -18.1142 32.1906 0.0 0.0 0.0 -22.0936 18.8485 13.6633 1.02526 -0.0435747 -0.151294 27.4386 1.23084 -3.62285 -26.3279 0.0 0.0 -0.0 0.0 -0.0 18.0329 25.54 -4.50122 -10.2612 -0.2846 -1.54695 5.42453 -20.1655 0.799926 -38.8947 0.0 0.0 0.0 0.0 0.0 
2925.63 697.1 -1443.7 17.0247 63.554 -19.1332 -2.13855 0.262905 1.56524 -2.1372 0.162785 1.57879 -2.13118 -0.231266 1.57023 -2.13462 0.0195918 1.58704 -5.78788 20.057 0.589536 -5.60515 36.7188 4.34645 -0.0 0.0 -0.0 6.29021 19.3857 11.7099 11.7917 -28.4736 53.1892 2.83083 -54.4967 1.45809 -42.7447 -3.24767 4.25074 0.28905 15.1002 7.98458 -0.0 0.0 -0.0 12.4709 16.9349 -25.2005 -20.9461 18.8918 -63.0353 0.172508 4.88448 -0.00735763 -34.1266 2.34928 -3.60772 -6.48367 -19.3718 33.0409 0.0 0.0 0.0 -19.4693 21.5806 13.8285 -4.25143 0.151548 0.634716 29.8633 3.43609 -3.87776 -27.141 0.0 0.0 -0.0 0.0 -0.0 18.957 26.0183 -4.46952 -5.75284 -0.19375 -0.861263 10.6308 -19.4971 1.53942 -38.1353 0.0 0.0 0.0 0.0 0.0 
2915.42 694.962 -1442.69 15.1048 63.4571 -17.0298 -2.16652 0.29884 1.48569 -2.16531 0.203707 1.50169 -2.15853 -0.173306 1.5055 -2.16169 0.0666068 1.51398 -4.70301 19.9995 -0.00785272 -4.33227 36.8356 3.34546 -0.0 0.0 -0.0 6.83304 20.6074 12.4517 13.0841 -29.137 52.8721 2.95254 -55.628 1.55787 -42.3331 -3.20263 4.22314 0.262477 16.7107 8.43001 -0.0 0.0 -0.0 12.8134 18.8796 -25.8866 -22.4609 17.4897 -62.9343 0.176135 4.98667 -0.00766974 -34.9964 2.43543 -3.67863 -6.94281 -20.6542 35.2903 0.0 0.0 0.0 -18.2361 21.9733 13.3392 -7.88284 0.243399 1.18434 32.6967 2.15837 -4.17798 -26.4794 0.0 0.0 -0.0 0.0 -0.0 18.8345 26.5624 -4.16056 1.49925 0.0646349 0.220975 11.8303 -18.8472 1.70234 -40.0884 0.0 0.0 0.0 0.0 0.0 
